<mxfile host="app.diagrams.net" modified="2023-06-07T07:27:16.272Z" agent="Mozilla/5.0 (Windows NT 10.0; Win64; x64) AppleWebKit/537.36 (KHTML, like Gecko) Chrome/114.0.0.0 Safari/537.36" etag="iIK3s7CKRRPIe4E_bqrA" version="21.3.7" type="device">
  <diagram name="Page-1" id="oce1iUqfgvJhy_ukGdwQ">
    <mxGraphModel dx="1434" dy="788" grid="1" gridSize="10" guides="1" tooltips="1" connect="1" arrows="1" fold="1" page="1" pageScale="1" pageWidth="850" pageHeight="1100" math="0" shadow="0">
      <root>
        <mxCell id="0" />
        <mxCell id="1" parent="0" />
        <mxCell id="q5fgadq-Z2yJvr_7RxZJ-1" value="Windows OS lietotājs" style="shape=umlActor;verticalLabelPosition=bottom;verticalAlign=top;html=1;outlineConnect=0;" parent="1" vertex="1">
          <mxGeometry x="165" y="372" width="80" height="160" as="geometry" />
        </mxCell>
        <mxCell id="q5fgadq-Z2yJvr_7RxZJ-6" value="Startēt Tests.jar" style="ellipse;whiteSpace=wrap;html=1;" parent="1" vertex="1">
          <mxGeometry x="365" y="386" width="120" height="80" as="geometry" />
        </mxCell>
        <mxCell id="q5fgadq-Z2yJvr_7RxZJ-7" value="Apturēt Tests.jar" style="ellipse;whiteSpace=wrap;html=1;" parent="1" vertex="1">
          <mxGeometry x="365" y="470" width="120" height="80" as="geometry" />
        </mxCell>
        <mxCell id="q5fgadq-Z2yJvr_7RxZJ-9" value="Ieķeksēt jautājuma atbildes" style="ellipse;whiteSpace=wrap;html=1;" parent="1" vertex="1">
          <mxGeometry x="365" y="200" width="120" height="80" as="geometry" />
        </mxCell>
        <mxCell id="q5fgadq-Z2yJvr_7RxZJ-11" value="A" style="ellipse;whiteSpace=wrap;html=1;" parent="1" vertex="1">
          <mxGeometry x="300" y="160" width="60" height="40" as="geometry" />
        </mxCell>
        <mxCell id="q5fgadq-Z2yJvr_7RxZJ-12" value="B" style="ellipse;whiteSpace=wrap;html=1;" parent="1" vertex="1">
          <mxGeometry x="360" y="110" width="60" height="40" as="geometry" />
        </mxCell>
        <mxCell id="q5fgadq-Z2yJvr_7RxZJ-13" value="C" style="ellipse;whiteSpace=wrap;html=1;" parent="1" vertex="1">
          <mxGeometry x="430" y="110" width="60" height="40" as="geometry" />
        </mxCell>
        <mxCell id="q5fgadq-Z2yJvr_7RxZJ-14" value="D" style="ellipse;whiteSpace=wrap;html=1;" parent="1" vertex="1">
          <mxGeometry x="490" y="160" width="60" height="40" as="geometry" />
        </mxCell>
        <mxCell id="q5fgadq-Z2yJvr_7RxZJ-27" value="" style="endArrow=none;html=1;rounded=0;exitX=1;exitY=0.3333333333333333;exitDx=0;exitDy=0;exitPerimeter=0;entryX=0;entryY=0.5;entryDx=0;entryDy=0;" parent="1" source="q5fgadq-Z2yJvr_7RxZJ-1" target="q5fgadq-Z2yJvr_7RxZJ-6" edge="1">
          <mxGeometry width="50" height="50" relative="1" as="geometry">
            <mxPoint x="245" y="427.3333333333335" as="sourcePoint" />
            <mxPoint x="380" y="322" as="targetPoint" />
          </mxGeometry>
        </mxCell>
        <mxCell id="q5fgadq-Z2yJvr_7RxZJ-28" value="" style="endArrow=none;html=1;rounded=0;exitX=1;exitY=0.3333333333333333;exitDx=0;exitDy=0;exitPerimeter=0;entryX=0;entryY=0.5;entryDx=0;entryDy=0;" parent="1" source="q5fgadq-Z2yJvr_7RxZJ-1" target="q5fgadq-Z2yJvr_7RxZJ-7" edge="1">
          <mxGeometry width="50" height="50" relative="1" as="geometry">
            <mxPoint x="255" y="435" as="sourcePoint" />
            <mxPoint x="375" y="434" as="targetPoint" />
          </mxGeometry>
        </mxCell>
        <mxCell id="q5fgadq-Z2yJvr_7RxZJ-29" value="" style="endArrow=none;html=1;rounded=0;exitX=0.5;exitY=0;exitDx=0;exitDy=0;entryX=0.5;entryY=1;entryDx=0;entryDy=0;" parent="1" source="q5fgadq-Z2yJvr_7RxZJ-6" target="q5fgadq-Z2yJvr_7RxZJ-9" edge="1">
          <mxGeometry width="50" height="50" relative="1" as="geometry">
            <mxPoint x="255" y="435" as="sourcePoint" />
            <mxPoint x="375" y="436" as="targetPoint" />
          </mxGeometry>
        </mxCell>
        <mxCell id="q5fgadq-Z2yJvr_7RxZJ-33" value="" style="endArrow=none;html=1;rounded=0;exitX=1;exitY=1;exitDx=0;exitDy=0;entryX=0;entryY=0;entryDx=0;entryDy=0;" parent="1" source="q5fgadq-Z2yJvr_7RxZJ-11" target="q5fgadq-Z2yJvr_7RxZJ-9" edge="1">
          <mxGeometry width="50" height="50" relative="1" as="geometry">
            <mxPoint x="413" y="428" as="sourcePoint" />
            <mxPoint x="297" y="298" as="targetPoint" />
          </mxGeometry>
        </mxCell>
        <mxCell id="q5fgadq-Z2yJvr_7RxZJ-34" value="" style="endArrow=none;html=1;rounded=0;exitX=0;exitY=1;exitDx=0;exitDy=0;entryX=1;entryY=0;entryDx=0;entryDy=0;" parent="1" source="q5fgadq-Z2yJvr_7RxZJ-14" target="q5fgadq-Z2yJvr_7RxZJ-9" edge="1">
          <mxGeometry width="50" height="50" relative="1" as="geometry">
            <mxPoint x="361" y="204" as="sourcePoint" />
            <mxPoint x="393" y="222" as="targetPoint" />
          </mxGeometry>
        </mxCell>
        <mxCell id="q5fgadq-Z2yJvr_7RxZJ-35" value="" style="endArrow=none;html=1;rounded=0;exitX=0.5;exitY=1;exitDx=0;exitDy=0;entryX=0.324;entryY=0.043;entryDx=0;entryDy=0;entryPerimeter=0;" parent="1" source="q5fgadq-Z2yJvr_7RxZJ-12" target="q5fgadq-Z2yJvr_7RxZJ-9" edge="1">
          <mxGeometry width="50" height="50" relative="1" as="geometry">
            <mxPoint x="371" y="214" as="sourcePoint" />
            <mxPoint x="403" y="232" as="targetPoint" />
          </mxGeometry>
        </mxCell>
        <mxCell id="q5fgadq-Z2yJvr_7RxZJ-36" value="" style="endArrow=none;html=1;rounded=0;exitX=0.5;exitY=1;exitDx=0;exitDy=0;entryX=0.693;entryY=0.043;entryDx=0;entryDy=0;entryPerimeter=0;" parent="1" source="q5fgadq-Z2yJvr_7RxZJ-13" target="q5fgadq-Z2yJvr_7RxZJ-9" edge="1">
          <mxGeometry width="50" height="50" relative="1" as="geometry">
            <mxPoint x="381" y="224" as="sourcePoint" />
            <mxPoint x="413" y="242" as="targetPoint" />
          </mxGeometry>
        </mxCell>
      </root>
    </mxGraphModel>
  </diagram>
</mxfile>
